<svg xmlns="http://www.w3.org/2000/svg" xmlns:xlink="http://www.w3.org/1999/xlink" width="17px" height="17px" viewBox="0 0 17 17" version="1.1">
<g id="surface1">
<path style="stroke: none; fill-rule: evenodd; fill: rgb(122, 122, 122); fill-opacity: 1;" d="M 8.5 0 C 7.742188 1.855469 7.285156 3.066406 6.441406 4.867188 C 6.960938 5.414062 7.59375 6.054688 8.621094 6.773438 C 7.511719 6.316406 6.761719 5.859375 6.195312 5.386719 C 5.117188 7.636719 3.425781 10.839844 -0.00390625 17 C 2.695312 15.445312 4.78125 14.488281 6.730469 14.121094 C 6.648438 13.761719 6.597656 13.371094 6.601562 12.964844 L 6.605469 12.878906 C 6.648438 11.152344 7.546875 9.824219 8.609375 9.917969 C 9.675781 10.007812 10.5 11.480469 10.457031 13.207031 C 10.453125 13.519531 10.414062 13.828125 10.351562 14.132812 C 12.277344 14.511719 14.34375 15.46875 17 17 L 15.5625 14.339844 C 14.855469 13.792969 14.121094 13.082031 12.625 12.3125 C 13.65625 12.582031 14.390625 12.890625 14.964844 13.234375 C 10.421875 4.777344 10.054688 3.652344 8.496094 0 Z M 8.5 0 "/>
</g>
</svg>